<svg width="84" height="84" viewBox="0 0 84 84" fill="none" xmlns="http://www.w3.org/2000/svg">
<g filter="url(#filter0_d_6_2)">
<rect x="2" y="1" width="80" height="80" rx="40" fill="#CCD3CA" shape-rendering="crispEdges"/>
<path d="M42.432 63.8947C39.6161 63.5533 36.8194 62.8039 34.042 61.6467C31.2646 60.4895 28.7688 58.8174 26.5545 56.6303C24.3402 54.4433 22.5251 51.6762 21.1092 48.3292C19.6933 44.9822 18.9293 40.9552 18.8173 36.2483L18.7693 33.9924L20.9772 34.0404C22.9066 34.0884 25.0305 34.4428 27.3488 35.1036C29.6671 35.7643 31.7318 36.6675 33.5429 37.813C33.8981 34.4596 34.8516 30.9766 36.4035 27.364C37.9554 23.7514 39.8209 20.6651 42 18.1053C44.1791 20.6651 46.0446 23.7594 47.5965 27.388C49.1484 31.0166 50.1019 34.5076 50.4571 37.861C52.2202 36.7635 54.2449 35.8643 56.5312 35.1636C58.8175 34.4628 60.9654 34.0884 62.9749 34.0404L65.2307 33.9924L65.1827 36.2963C65.1187 40.5552 64.4868 44.2742 63.2869 47.4532C62.0869 50.6322 60.4678 53.3312 58.4296 55.5503C56.3913 57.7694 54.009 59.5573 51.2828 60.914C48.5565 62.2708 45.6063 63.2643 42.432 63.8947ZM42.3552 60.0742C41.8977 53.169 39.849 47.9484 36.2091 44.4126C32.5693 40.8768 28.0455 38.6929 22.6378 37.8609C23.0954 44.9742 25.2065 50.2779 28.9711 53.7721C32.7357 57.2663 37.1971 59.367 42.3552 60.0742ZM42 45.8574C42.592 44.8783 43.3311 43.8599 44.2175 42.8024C45.1039 41.7448 45.987 40.8465 46.867 40.1073C46.8158 37.6402 46.3638 35.0651 45.511 32.382C44.6583 29.699 43.4879 27.1063 42 24.604C40.5121 27.1063 39.3417 29.699 38.489 32.382C37.6362 35.0651 37.1843 37.6402 37.1331 40.1073C38.013 40.8465 38.8986 41.7448 39.7897 42.8024C40.6809 43.8599 41.4176 44.8783 42 45.8574ZM46.099 59.0951C47.8461 58.5159 49.5836 57.7159 51.3115 56.6952C53.0395 55.6744 54.617 54.3305 56.0441 52.6634C57.4712 50.9962 58.6664 48.9515 59.6295 46.5293C60.5927 44.107 61.1702 41.2175 61.3622 37.8609C57.388 38.4433 53.8762 39.8032 50.8267 41.9407C47.7773 44.0782 45.5102 46.7469 44.0255 49.9467C44.5246 51.2779 44.943 52.6778 45.2806 54.1465C45.6182 55.6152 45.891 57.2648 46.099 59.0951Z" fill="#596059"/>
</g>
<defs>
<filter id="filter0_d_6_2" x="0" y="0" width="84" height="84" filterUnits="userSpaceOnUse" color-interpolation-filters="sRGB">
<feFlood flood-opacity="0" result="BackgroundImageFix"/>
<feColorMatrix in="SourceAlpha" type="matrix" values="0 0 0 0 0 0 0 0 0 0 0 0 0 0 0 0 0 0 127 0" result="hardAlpha"/>
<feOffset dy="1"/>
<feGaussianBlur stdDeviation="1"/>
<feComposite in2="hardAlpha" operator="out"/>
<feColorMatrix type="matrix" values="0 0 0 0 0 0 0 0 0 0 0 0 0 0 0 0 0 0 0.05 0"/>
<feBlend mode="normal" in2="BackgroundImageFix" result="effect1_dropShadow_6_2"/>
<feBlend mode="normal" in="SourceGraphic" in2="effect1_dropShadow_6_2" result="shape"/>
</filter>
</defs>
</svg>
