<svg width="75" height="74" viewBox="0 0 75 74" fill="none" xmlns="http://www.w3.org/2000/svg">
<path d="M37.9229 73.3841C33.4099 72.8369 28.9279 71.636 24.4767 69.7814C20.0255 67.9268 16.0256 65.247 12.4769 61.7419C8.92821 58.2368 6.01924 53.8022 3.75002 48.4381C1.48079 43.0741 0.256429 36.6203 0.0769287 29.0767L0 25.4614L3.53843 25.5383C6.63071 25.6152 10.0346 26.1832 13.7499 27.2422C17.4653 28.3011 20.7743 29.7486 23.6769 31.5845C24.2461 26.2102 25.7743 20.6281 28.2614 14.8384C30.7486 9.04868 33.7383 4.10255 37.2306 0C40.7229 4.10255 43.7126 9.06151 46.1997 14.8769C48.6869 20.6922 50.2151 26.2871 50.7843 31.6614C53.6099 29.9025 56.8548 28.4614 60.5189 27.3383C64.183 26.2152 67.6253 25.6152 70.8458 25.5383L74.4611 25.4614L74.3842 29.1536C74.2816 35.9792 73.2688 41.9394 71.3458 47.0342C69.4227 52.129 66.8279 56.4546 63.5613 60.011C60.2946 63.5674 56.4767 66.4328 52.1075 68.6071C47.7383 70.7815 43.0101 72.3738 37.9229 73.3841ZM37.7999 67.2612C37.0665 56.1945 33.7832 47.8279 27.9499 42.1612C22.1165 36.4945 14.8665 32.9945 6.19985 31.6612C6.93319 43.0612 10.3165 51.5612 16.3499 57.1612C22.3832 62.7612 29.5332 66.1279 37.7999 67.2612ZM37.2306 44.4768C38.1793 42.9075 39.3639 41.2755 40.7844 39.5806C42.2049 37.8857 43.6203 36.446 45.0306 35.2614C44.9485 31.3075 44.2242 27.1806 42.8575 22.8805C41.4908 18.5805 39.6152 14.4254 37.2306 10.4151C34.8459 14.4254 32.9703 18.5805 31.6036 22.8805C30.237 27.1806 29.5126 31.3075 29.4306 35.2614C30.8408 36.446 32.2601 37.8857 33.6883 39.5806C35.1165 41.2755 36.2972 42.9075 37.2306 44.4768ZM43.7997 65.692C46.5997 64.7638 49.3844 63.4817 52.1536 61.8458C54.9228 60.2099 57.451 58.0561 59.7382 55.3843C62.0254 52.7125 63.9408 49.4355 65.4844 45.5535C67.028 41.6714 67.9536 37.0407 68.2613 31.6612C61.892 32.5945 56.2638 34.774 51.3766 38.1997C46.4894 41.6253 42.8561 45.9023 40.4766 51.0305C41.2766 53.1638 41.9471 55.4074 42.4882 57.7612C43.0292 60.1151 43.4664 62.7587 43.7997 65.692Z" fill="#596059" fill-opacity="0.4"/>
</svg>
