<svg width="800" height="400" viewBox="0 0 800 400" fill="none" xmlns="http://www.w3.org/2000/svg">
  <defs>
    <!-- Background gradient: warm beige to soft white -->
    <linearGradient id="bg" x1="0" y1="0" x2="800" y2="400" gradientUnits="userSpaceOnUse">
      <stop offset="0%" stop-color="#fdf9f6"/>
      <stop offset="100%" stop-color="#f8f5f2"/>
    </linearGradient>

    <!-- Circle gradient: beige tones -->
    <linearGradient id="circleGrad" x1="0" y1="0" x2="1" y2="1">
      <stop offset="0%" stop-color="#e8ddd6"/>
      <stop offset="100%" stop-color="#f5ede7"/>
    </linearGradient>

    <!-- Blur filter -->
    <filter id="blur1" x="-60%" y="-60%" width="220%" height="220%">
      <feGaussianBlur stdDeviation="55"/>
    </filter>
    <filter id="blur2" x="-60%" y="-60%" width="220%" height="220%">
      <feGaussianBlur stdDeviation="45"/>
    </filter>
    <filter id="blur3" x="-60%" y="-60%" width="220%" height="220%">
      <feGaussianBlur stdDeviation="60"/>
    </filter>

    <!-- Drop shadow for badge -->
    <filter id="badgeShadow" x="-20%" y="-20%" width="140%" height="140%">
      <feDropShadow dx="0" dy="2" stdDeviation="4" flood-color="#c4a09040"/>
    </filter>

    <!-- Circle shadow -->
    <filter id="circleShadow" x="-10%" y="-10%" width="120%" height="120%">
      <feDropShadow dx="0" dy="2" stdDeviation="6" flood-color="#ccd3ca30"/>
    </filter>
  </defs>

  <!-- Background -->
  <rect width="800" height="400" fill="url(#bg)"/>

  <!-- Blob 1: Green (CCD3CA) — top right -->
  <ellipse cx="680" cy="-20" rx="220" ry="200" fill="#CCD3CA" opacity="0.45" filter="url(#blur1)"/>

  <!-- Blob 2: Pink (EED3D9) — bottom left -->
  <ellipse cx="60" cy="430" rx="200" ry="190" fill="#EED3D9" opacity="0.55" filter="url(#blur2)"/>

  <!-- Blob 3: Beige (F5E8DD) — center -->
  <ellipse cx="400" cy="420" rx="300" ry="160" fill="#F5E8DD" opacity="0.4" filter="url(#blur3)"/>

  <!-- Subtle top-left accent: green -->
  <ellipse cx="-30" cy="60" rx="130" ry="120" fill="#CCD3CA" opacity="0.3" filter="url(#blur2)"/>

  <!-- ===== LEFT: Icon area ===== -->
  <!-- Main circle -->
  <circle cx="220" cy="200" r="140" fill="url(#circleGrad)" stroke="#ddd0c8" stroke-width="1" filter="url(#circleShadow)"/>

  <!-- Hollow leaves icon -->
  <g transform="translate(220, 200) scale(1.4) translate(-37.5, -37)">
    <path d="M37.9229 73.3841C33.4099 72.8369 28.9279 71.636 24.4767 69.7814C20.0255 67.9268 16.0256 65.247 12.4769 61.7419C8.92821 58.2368 6.01924 53.8022 3.75002 48.4381C1.48079 43.0741 0.256429 36.6203 0.0769287 29.0767L0 25.4614L3.53843 25.5383C6.63071 25.6152 10.0346 26.1832 13.7499 27.2422C17.4653 28.3011 20.7743 29.7486 23.6769 31.5845C24.2461 26.2102 25.7743 20.6281 28.2614 14.8384C30.7486 9.04868 33.7383 4.10255 37.2306 0C40.7229 4.10255 43.7126 9.06151 46.1997 14.8769C48.6869 20.6922 50.2151 26.2871 50.7843 31.6614C53.6099 29.9025 56.8548 28.4614 60.5189 27.3383C64.183 26.2152 67.6253 25.6152 70.8458 25.5383L74.4611 25.4614L74.3842 29.1536C74.2816 35.9792 73.2688 41.9394 71.3458 47.0342C69.4227 52.129 66.8279 56.4546 63.5613 60.011C60.2946 63.5674 56.4767 66.4328 52.1075 68.6071C47.7383 70.7815 43.0101 72.3738 37.9229 73.3841ZM37.7999 67.2612C37.0665 56.1945 33.7832 47.8279 27.9499 42.1612C22.1165 36.4945 14.8665 32.9945 6.19985 31.6612C6.93319 43.0612 10.3165 51.5612 16.3499 57.1612C22.3832 62.7612 29.5332 66.1279 37.7999 67.2612ZM37.2306 44.4768C38.1793 42.9075 39.3639 41.2755 40.7844 39.5806C42.2049 37.8857 43.6203 36.446 45.0306 35.2614C44.9485 31.3075 44.2242 27.1806 42.8575 22.8805C41.4908 18.5805 39.6152 14.4254 37.2306 10.4151C34.8459 14.4254 32.9703 18.5805 31.6036 22.8805C30.237 27.1806 29.5126 31.3075 29.4306 35.2614C30.8408 36.446 32.2601 37.8857 33.6883 39.5806C35.1165 41.2755 36.2972 42.9075 37.2306 44.4768ZM43.7997 65.692C46.5997 64.7638 49.3844 63.4817 52.1536 61.8458C54.9228 60.2099 57.451 58.0561 59.7382 55.3843C62.0254 52.7125 63.9408 49.4355 65.4844 45.5535C67.028 41.6714 67.9536 37.0407 68.2613 31.6612C61.892 32.5945 56.2638 34.774 51.3766 38.1997C46.4894 41.6253 42.8561 45.9023 40.4766 51.0305C41.2766 53.1638 41.9471 55.4074 42.4882 57.7612C43.0292 60.1151 43.4664 62.7587 43.7997 65.692Z" fill="#596059" fill-opacity="0.45"/>
  </g>

  <!-- Meditation badge -->
  <circle cx="330" cy="304" r="28" fill="white" filter="url(#badgeShadow)"/>
  <g transform="translate(330, 304) scale(1.1) translate(-12, -10.5)">
    <path d="M4.63074 20.282C4.04955 20.282 3.55981 20.0914 3.16152 19.7102C2.76324 19.329 2.5641 18.8478 2.5641 18.2666C2.5641 17.8598 2.68033 17.4893 2.91281 17.1551C3.14529 16.8209 3.44956 16.5778 3.82562 16.4256L9.23076 14.282V10.2819C7.83417 11.9213 6.40767 13.1196 4.95127 13.8768C3.49487 14.6341 1.84444 15.0598 0 15.1538V13.141C1.43418 13.0983 2.75726 12.7615 3.96922 12.1307C5.18118 11.5 6.28717 10.6068 7.28717 9.45126L9.08717 7.34357C9.31964 7.0752 9.59229 6.86964 9.90511 6.72691C10.2179 6.58418 10.5487 6.51281 10.8974 6.51281H12.2307C12.5795 6.51281 12.9102 6.58418 13.223 6.72691C13.5359 6.86964 13.8085 7.0752 14.041 7.34357L15.841 9.45126C16.841 10.6068 17.947 11.5 19.1589 12.1307C20.3709 12.7615 21.694 13.0983 23.1281 13.141V15.1538C21.2837 15.0598 19.6333 14.6341 18.1769 13.8768C16.7205 13.1196 15.294 11.9213 13.8974 10.2819V14.282L19.3025 16.4256C19.6786 16.5778 19.9829 16.8209 20.2153 17.1551C20.4478 17.4893 20.564 17.8598 20.564 18.2666C20.564 18.8478 20.3649 19.329 19.9666 19.7102C19.5683 20.0914 19.0786 20.282 18.4974 20.282H8.8974V19.8461C8.8974 19.294 9.06706 18.8482 9.40637 18.5089C9.74569 18.1696 10.1914 18 10.7435 18H14.8974C15.0974 18 15.2585 17.9388 15.3807 17.8166C15.503 17.6944 15.5641 17.5333 15.5641 17.3333C15.5641 17.1333 15.503 16.9722 15.3807 16.85C15.2585 16.7277 15.0974 16.6666 14.8974 16.6666H10.7435C9.83586 16.6666 9.07902 16.9696 8.47304 17.5756C7.86706 18.1816 7.56407 18.9384 7.56407 19.8461V20.282H4.63074ZM11.5641 4.92305C10.882 4.92305 10.3013 4.6833 9.82177 4.20382C9.34229 3.72434 9.10255 3.14357 9.10255 2.46152C9.10255 1.77948 9.34229 1.19871 9.82177 0.719226C10.3013 0.239742 10.882 0 11.5641 0C12.2461 0 12.8269 0.239742 13.3064 0.719226C13.7859 1.19871 14.0256 1.77948 14.0256 2.46152C14.0256 3.14357 13.7859 3.72434 13.3064 4.20382C12.8269 4.6833 12.2461 4.92305 11.5641 4.92305Z" fill="#8a7570"/>
  </g>

  <!-- ===== RIGHT: Text content ===== -->
  <!-- App name -->
  <text x="430" y="170" font-family="Figtree, -apple-system, BlinkMacSystemFont, 'Segoe UI', sans-serif" font-size="52" font-weight="700" fill="#2d2926" letter-spacing="-1">Step Back</text>

  <!-- Divider line: green from palette -->
  <rect x="430" y="192" width="48" height="3" rx="1.5" fill="#CCD3CA"/>

  <!-- Tagline -->
  <text x="430" y="232" font-family="Figtree, -apple-system, BlinkMacSystemFont, 'Segoe UI', sans-serif" font-size="18" font-weight="400" fill="#5a4f49" letter-spacing="-0.2">내 사고와 감정에서 한 발짝 떨어져</text>
  <text x="430" y="259" font-family="Figtree, -apple-system, BlinkMacSystemFont, 'Segoe UI', sans-serif" font-size="18" font-weight="400" fill="#5a4f49" letter-spacing="-0.2">패턴을 알아차리는 메타인지 도구</text>

  <!-- Domain label: beige pill -->
  <rect x="430" y="294" width="128" height="30" rx="15" fill="#EED3D9" opacity="0.6"/>
  <text x="494" y="314" font-family="Figtree, -apple-system, BlinkMacSystemFont, 'Segoe UI', sans-serif" font-size="13" font-weight="500" fill="#8a5060" text-anchor="middle">sb.soomn.com</text>
</svg>
