<svg width="24" height="21" viewBox="0 0 24 21" fill="none" xmlns="http://www.w3.org/2000/svg">
<path d="M4.63074 20.282C4.04955 20.282 3.55981 20.0914 3.16152 19.7102C2.76324 19.329 2.5641 18.8478 2.5641 18.2666C2.5641 17.8598 2.68033 17.4893 2.91281 17.1551C3.14529 16.8209 3.44956 16.5778 3.82562 16.4256L9.23076 14.282V10.2819C7.83417 11.9213 6.40767 13.1196 4.95127 13.8768C3.49487 14.6341 1.84444 15.0598 0 15.1538V13.141C1.43418 13.0983 2.75726 12.7615 3.96922 12.1307C5.18118 11.5 6.28717 10.6068 7.28717 9.45126L9.08717 7.34357C9.31964 7.0752 9.59229 6.86964 9.90511 6.72691C10.2179 6.58418 10.5487 6.51281 10.8974 6.51281H12.2307C12.5795 6.51281 12.9102 6.58418 13.223 6.72691C13.5359 6.86964 13.8085 7.0752 14.041 7.34357L15.841 9.45126C16.841 10.6068 17.947 11.5 19.1589 12.1307C20.3709 12.7615 21.694 13.0983 23.1281 13.141V15.1538C21.2837 15.0598 19.6333 14.6341 18.1769 13.8768C16.7205 13.1196 15.294 11.9213 13.8974 10.2819V14.282L19.3025 16.4256C19.6786 16.5778 19.9829 16.8209 20.2153 17.1551C20.4478 17.4893 20.564 17.8598 20.564 18.2666C20.564 18.8478 20.3649 19.329 19.9666 19.7102C19.5683 20.0914 19.0786 20.282 18.4974 20.282H8.8974V19.8461C8.8974 19.294 9.06706 18.8482 9.40637 18.5089C9.74569 18.1696 10.1914 18 10.7435 18H14.8974C15.0974 18 15.2585 17.9388 15.3807 17.8166C15.503 17.6944 15.5641 17.5333 15.5641 17.3333C15.5641 17.1333 15.503 16.9722 15.3807 16.85C15.2585 16.7277 15.0974 16.6666 14.8974 16.6666H10.7435C9.83586 16.6666 9.07902 16.9696 8.47304 17.5756C7.86706 18.1816 7.56407 18.9384 7.56407 19.8461V20.282H4.63074ZM11.5641 4.92305C10.882 4.92305 10.3013 4.6833 9.82177 4.20382C9.34229 3.72434 9.10255 3.14357 9.10255 2.46152C9.10255 1.77948 9.34229 1.19871 9.82177 0.719226C10.3013 0.239742 10.882 0 11.5641 0C12.2461 0 12.8269 0.239742 13.3064 0.719226C13.7859 1.19871 14.0256 1.77948 14.0256 2.46152C14.0256 3.14357 13.7859 3.72434 13.3064 4.20382C12.8269 4.6833 12.2461 4.92305 11.5641 4.92305Z" fill="#555F6D"/>
</svg>
